<svg xmlns="http://www.w3.org/2000/svg" viewBox="0 0 32 32" width="32" height="32">
  <!-- A 4x4 grid of candidate values; the diagonal resolves to verified.
       Same mark as the header, so the tab icon and the wordmark never drift. -->
  <rect width="32" height="32" rx="7" fill="#1B3A8F"/>
  <g fill="#ffffff" fill-opacity="0.34">
    <rect x="6"  y="6"  width="4.5" height="4.5" rx="1.2"/>
    <rect x="13" y="6"  width="4.5" height="4.5" rx="1.2"/>
    <rect x="20" y="6"  width="4.5" height="4.5" rx="1.2"/>
    <rect x="6"  y="13" width="4.5" height="4.5" rx="1.2"/>
    <rect x="20" y="13" width="4.5" height="4.5" rx="1.2"/>
    <rect x="6"  y="20" width="4.5" height="4.5" rx="1.2"/>
    <rect x="13" y="20" width="4.5" height="4.5" rx="1.2"/>
    <rect x="20" y="20" width="4.5" height="4.5" rx="1.2"/>
  </g>
  <g fill="#ffffff">
    <rect x="6"  y="20" width="4.5" height="4.5" rx="1.2"/>
    <rect x="13" y="13" width="4.5" height="4.5" rx="1.2"/>
    <rect x="20" y="6"  width="4.5" height="4.5" rx="1.2"/>
  </g>
</svg>
